<svg viewBox="0 0 16 16" xmlns="http://www.w3.org/2000/svg">
  <path
    d="M4.4 10.057a1 1 0 0 1 1.275.611c.495 1.405 1.226 2.7 2.077 3.673a1 1 0 0 1-1.505 1.318c-1.044-1.192-1.893-2.72-2.459-4.327a1 1 0 0 1 .611-1.275Zm2.517-4.053a1 1 0 0 1 1.08.913c.265 3.21 1.93 5.02 3.23 6.396a1 1 0 1 1-1.454 1.373c-1.345-1.423-3.443-3.667-3.77-7.603a1 1 0 0 1 .914-1.08ZM.398 4.667a1 1 0 0 1 1.886.666A4.992 4.992 0 0 0 2 7c0 2.556.495 4.075 1.19 5.581a1 1 0 1 1-1.815.838C.578 11.694 0 9.889 0 7a7 7 0 0 1 .398-2.333ZM7 3c1.068 0 2.016.37 2.733 1.056.71.678 1.135 1.609 1.284 2.647.286 2.008 1.58 3.593 2.996 4.439a1 1 0 0 1-1.026 1.716c-1.85-1.105-3.566-3.177-3.95-5.873-.098-.679-.357-1.17-.685-1.484C8.032 5.195 7.589 5 7 5c-1.13 0-1.996.799-1.996 2 0 .295.015.597.045.903a1 1 0 1 1-1.99.194A11.345 11.345 0 0 1 3.004 7c0-2.355 1.812-4 3.996-4Zm3.806-.745a1 1 0 0 1 1.412.078 6.98 6.98 0 0 1 1.706 3.633c.079.533.192.956.39 1.292.164.276.384.514.646.698l.615.433a1 1 0 1 1-1.15 1.635l-.615-.431a4.26 4.26 0 0 1-1.217-1.318c-.395-.668-.556-1.396-.648-2.016a4.978 4.978 0 0 0-1.218-2.592 1 1 0 0 1 .079-1.412ZM7 0a7 7 0 0 1 2.333.398 1 1 0 0 1-.666 1.886A4.992 4.992 0 0 0 7 2c-1.281 0-2.448.48-3.333 1.272a1 1 0 0 1-1.334-1.49A6.978 6.978 0 0 1 7 0Z"
  />
</svg>
