<svg viewBox="0 0 24 24" xmlns="http://www.w3.org/2000/svg">
  <path
    d="M12.4 2a9 9 0 0 1 3.461.692l.024.01a1 1 0 0 1-.77 1.846l-.022-.01a6.974 6.974 0 0 0-.607-.22 4 4 0 0 1-7.973 0 6.983 6.983 0 0 0-.606.22L2.615 5.91A1 1 0 0 0 2 6.833V9h3a1 1 0 0 1 1 1v8.256c.03.04.074.098.14.17.174.19.442.43.817.664.742.464 1.9.91 3.543.91 1.644 0 2.8-.446 3.543-.91.375-.235.643-.474.816-.663.067-.073.111-.13.141-.171V16a1 1 0 1 1 2 0v2.5c0 .09-.012.18-.036.268-.1.357-.362.718-.628 1.008a5.987 5.987 0 0 1-1.232 1.01C14.046 21.445 12.523 22 10.5 22s-3.547-.554-4.604-1.215a5.947 5.947 0 0 1-1.232-1.009c-.266-.29-.529-.651-.628-1.008A1 1 0 0 1 4 18.5V11H1a1 1 0 0 1-1-1V6.833a3 3 0 0 1 1.846-2.769l3.293-1.372A9 9 0 0 1 8.599 2H12.4Zm5.725 3.207c.202-.943 1.548-.943 1.75 0l.352 1.636a1.864 1.864 0 0 0 1.43 1.43l1.636.352c.943.202.943 1.547 0 1.75l-1.636.352a1.864 1.864 0 0 0-1.43 1.431l-.352 1.635c-.202.943-1.548.943-1.75 0l-.352-1.635a1.864 1.864 0 0 0-1.431-1.431l-1.635-.352c-.943-.202-.943-1.548 0-1.75l1.635-.352a1.864 1.864 0 0 0 1.431-1.43l.352-1.636ZM8.5 4.002a2 2 0 0 0 3.999 0L12.4 4H8.6l-.1.002Z"
  />
</svg>
