<svg viewBox="0 0 69 24" xmlns="http://www.w3.org/2000/svg">
  <rect width="69" height="24" rx="12" fill="#B2FCE5" />
  <path
    d="M54.813 8.631c-.231.226.063.781-.239.948-.118.066-.199.046-.313-.007-.129-.06-.717-.394-.783-.48-.126-.163-.062-.613-.006-.811.244-.866 1.259-1.344 2.082-.96 1.016.613 2.119 1.148 3.12 1.778 1.027.646 1.114 1.894.133 2.623-1.069.54-2.11 1.311-3.18 1.828-.992.48-2.131-.159-2.214-1.257-.025-.328.084-.695-.43-.603l-2.856 1.651a.3.3 0 0 0 .02.454L53 15.43c.586.13.352-.51.423-.817.041-.18.234-.251.398-.2.118.037.587.32.71.401.128.087.175.122.19.29.114 1.288-1.132 2.099-2.28 1.518-1.104-.56-2.195-1.298-3.274-1.91-.733-.647-.69-1.818.115-2.39.973-.69 2.228-1.195 3.232-1.864.95-.48 2.119.163 2.205 1.227.017.208-.066.452.12.599.106.083.212.085.33.026l2.794-1.606c.21-.163.172-.41-.053-.533l-2.783-1.594a.324.324 0 0 0-.313.056Zm-38.634-.214c.011-.121.076-.347.126-.461.343-.773 1.377-.65 2.073-.66l.022.969c.003.018-.022.054-.033.054h-.48c-.009 0-.158.05-.178.06-.1.053-.224.255-.224.365v.664h1.677V8.145h1.274l.032.033v1.23h.795c.01 0 .036.036.033.054v1.046c.003.018-.022.054-.033.054h-.795v2.472c0 .044.057.197.087.24.045.063.198.163.272.163h.436l.032.033v1.11c-.019.031-.043.03-.075.034-.358.042-1.159-.011-1.477-.179-.328-.172-.581-.643-.581-1.009v-2.864h-1.677v4.018l-.033.033H16.18v-4.05h-.708c-.01 0-.036-.037-.033-.055V9.462c-.003-.018.022-.054.033-.054h.708c.022-.319-.03-.677 0-.99Zm16.439 5.586v2.69l-.033.033h-1.263V9.408h1.252v.653c1.158-1.285 3.199-.795 3.88.726.498 1.112.26 2.498-.667 3.304-.895.777-2.354.835-3.17-.088Zm1.17-3.457c-1.605.181-1.572 2.79.039 2.934 2.09.188 2.07-3.171-.038-2.934Zm-20.189 4.067c-.062-.019-.011-.134-.01-.184.005-.156-.005-.313-.001-.47-.026-.028-.26.233-.295.261-.644.535-1.596.587-2.348.26-1.487-.648-1.904-2.625-1.09-3.96.71-1.162 2.356-1.634 3.46-.72.032.027.247.268.273.24-.004-.15.005-.3 0-.448 0-.037-.048-.184.01-.184h1.253v5.205h-1.252Zm-1.649-4.066c-1.606.192-1.572 2.813.08 2.934 2.07.152 2.021-3.187-.08-2.934Zm29.367 4.066c-.061-.019-.011-.134-.01-.184.005-.156-.005-.313 0-.47-.072-.005-.093.085-.131.12-1.11 1.047-2.895.674-3.632-.614-.526-.92-.502-2.12.074-3.01.728-1.127 2.35-1.543 3.427-.644.031.025.235.258.261.228-.004-.148.006-.298.002-.447-.002-.037-.05-.184.01-.184h1.252v5.205h-1.252Zm-1.648-4.066c-1.591.19-1.569 2.787.06 2.933 2.083.188 2.06-3.188-.06-2.934Zm-12.582 1.802h-3.963c.099 1.349 1.89 1.614 2.559.522H27c-.6 2.293-4.14 2.453-5.034.276-.825-2.012.684-4.075 2.865-3.801 1.497.188 2.442 1.529 2.256 3.003Z"
  />
  <path
    d="M25.694 11.543c-.181-1.44-2.332-1.411-2.569 0h2.57Z"
    fill="#B2FCE5"
  />
  <path
    d="m44.562 9.408 1.35 3.027 1.48-3.027h1.415l-3.527 7.318h-1.426l.068-.204 1.228-2.543-2.058-4.57h1.47ZM30.68 9.43v1.329c-.407-.204-.944-.386-1.328-.033-.16.146-.304.504-.304.719v3.169H27.74V9.409h1.263v.5c.378-.542 1.063-.721 1.677-.479Z"
  />
</svg>
