<svg viewBox="0 0 16 16" xmlns="http://www.w3.org/2000/svg">
  <path
    d="M7 1a.95.95 0 0 1 .108.006 6.333 6.333 0 0 1 2.174.469l1.098.45a1 1 0 1 1-.76 1.85l-.374-.153C9.174 5.072 7.832 6 6.5 6s-2.676-.929-2.747-2.38l-1.546.633A.334.334 0 0 0 2 4.562V6h1a1 1 0 0 1 1 1v5.388c.206.196.859.612 2.679.612 1.612 0 2.16-.414 2.321-.582V11a1 1 0 1 1 2 0v1.688a.998.998 0 0 1-.038.274C10.709 13.849 9.542 15 6.679 15c-3.161 0-4.298-1.128-4.614-1.957A1 1 0 0 1 2 12.688V8H1a1 1 0 0 1-1-1V4.562c0-.948.573-1.8 1.45-2.16l2.272-.93A6.333 6.333 0 0 1 6 1h1Zm5.184 2.958c.13-.61 1.001-.61 1.132 0l.229 1.063c.1.468.466.834.934.934l1.063.229c.61.13.61 1.001 0 1.132l-1.063.229c-.468.1-.834.466-.934.934l-.229 1.063c-.13.61-1.001.61-1.132 0l-.229-1.063a1.217 1.217 0 0 0-.934-.934l-1.063-.229c-.61-.13-.61-1.001 0-1.132l1.063-.229c.468-.1.834-.466.934-.934l.229-1.063ZM6.12 3c-.124 0-.248.006-.371.017V3.5c0 .083.037.193.163.302.129.11.333.198.587.198a.904.904 0 0 0 .587-.198c.126-.109.163-.219.163-.302v-.483A4.325 4.325 0 0 0 6.876 3h-.755Z"
  />
</svg>
