<svg viewBox="0 0 30 18" xmlns="http://www.w3.org/2000/svg">
  <rect width="30" height="18" rx="2" fill="#1B1323" />
  <path
    d="m5.35 10.75.182 1.48h6.367l-.208-1.697H8.722l-.026-.21 2.734-1.91-.182-1.485H4.881l.208 1.697h2.973l.027.212-2.74 1.912Zm20.343-1.913c-.146-1.191-1.083-1.914-2.355-1.91H19.1l.65 5.303h1.907l-.13-1.06h2.017c1.588 0 2.315-.99 2.148-2.333h.001Zm-2.355.846-1.994.002-.157-1.272 2.005.002c.471.006.713.271.752.634.025.234-.082.634-.606.634Z"
    fill="#FCF9F7"
  />
  <path d="m11.988 6.928.652 5.303h6.372l-.652-5.303h-6.372Z" fill="#AA8FFF" />
  <path
    d="M13.93 6.245c.339-.36.283-.961-.124-1.343-.406-.383-1.01-.401-1.348-.042-.338.36-.282.96.125 1.343.407.382 1.01.4 1.348.042Z"
    fill="#FCF9F7"
  />
</svg>
