<svg viewBox="0 0 50 32" xmlns="http://www.w3.org/2000/svg">
  <rect y=".002" width="50" height="32" rx="2" fill="#AFADFF" />
  <path
    d="M31.912 8.86c1.516-.16 2.777 1.154 2.564 2.67l-1.807 12.944a2.34 2.34 0 0 1-3.002 1.923l-8.404-2.583a1.768 1.768 0 0 1-1.226-1.935l.36-2.56 3.273.58c.977.174 1.902-.5 2.042-1.491l1.275-9.028 4.925-.52Zm-6.76-3.32c1.191-.25 2.27.767 2.097 1.98l-.262 1.862-3.914.416a1.76 1.76 0 0 0-1.553 1.51l-1.123 8.011-3.686-.653a1.475 1.475 0 0 1-1.196-1.656l1.21-8.695a1.468 1.468 0 0 1 1.15-1.237l7.278-1.537Z"
    fill="#060606"
  />
</svg>
