<svg viewBox="0 0 16 16" xmlns="http://www.w3.org/2000/svg">
  <path
    d="M7.9 1a1 1 0 0 1 0 2H6.427a.5.5 0 0 0-.448.276l-.582 1.165A1.01 1.01 0 0 1 4.494 5H2.5a.5.5 0 0 0-.5.5v7a.5.5 0 0 0 .5.5h11a.5.5 0 0 0 .5-.5v-4a1 1 0 1 1 2 0v4a2.5 2.5 0 0 1-2.5 2.5h-11A2.5 2.5 0 0 1 0 12.5v-7A2.5 2.5 0 0 1 2.5 3h1.382l.31-.618A2.5 2.5 0 0 1 6.426 1H7.9ZM8 5.5a3 3 0 1 1 0 6 3 3 0 0 1 0-6Zm0 2a1 1 0 1 0 0 2 1 1 0 0 0 0-2ZM12.184.958c.13-.61 1.001-.61 1.132 0l.229 1.063c.1.468.466.834.934.934l1.063.229c.61.13.61 1.001 0 1.132l-1.063.229c-.468.1-.834.466-.934.934l-.229 1.063c-.13.61-1.001.61-1.132 0l-.229-1.063a1.217 1.217 0 0 0-.934-.934l-1.063-.229c-.61-.13-.61-1.001 0-1.132l1.063-.229c.468-.1.834-.466.934-.934l.229-1.063Z"
  />
</svg>
