<svg viewBox="0 0 20 12" xmlns="http://www.w3.org/2000/svg">
  <rect y=".002" width="20" height="12" rx="2" fill="#AFADFF" />
  <path
    d="M10.057 2.08a.66.66 0 0 1 .787.741l-.098.697 1.846-.195a.88.88 0 0 1 .961 1.002l-.677 4.854a.877.877 0 0 1-1.125.722l-3.152-.97a.663.663 0 0 1-.46-.725l.135-.96 1.228.217a.658.658 0 0 0 .765-.559l.477-3.384-1.466.155a.66.66 0 0 0-.583.566l-.421 3.005-1.382-.245a.554.554 0 0 1-.449-.62l.454-3.262a.551.551 0 0 1 .432-.464l2.728-.576Z"
    fill="#060606"
  />
</svg>
