<svg viewBox="0 0 24 24" xmlns="http://www.w3.org/2000/svg">
  <path
    d="M12.75 2a1 1 0 1 1 0 2H9.441a1 1 0 0 0-.948.684L7.951 6.31a1.01 1.01 0 0 1-.958.69H3a1 1 0 0 0-1 1v11l.005.102A1 1 0 0 0 3 20h18a1 1 0 0 0 1-1v-7.5a1 1 0 1 1 2 0V19a3 3 0 0 1-3 3H3a3 3 0 0 1-2.996-2.846L0 19V8a3 3 0 0 1 3-3h3.28l.316-.948A3 3 0 0 1 9.44 2h3.309ZM12 8.25a4.75 4.75 0 1 1 0 9.5 4.75 4.75 0 0 1 0-9.5Zm0 2a2.75 2.75 0 1 0 0 5.5 2.75 2.75 0 0 0 0-5.5Zm6.125-8.543c.202-.943 1.548-.943 1.75 0l.352 1.636a1.864 1.864 0 0 0 1.43 1.43l1.636.352c.943.202.943 1.548 0 1.75l-1.636.352a1.864 1.864 0 0 0-1.43 1.431l-.352 1.635c-.203.943-1.547.943-1.75 0l-.352-1.635a1.865 1.865 0 0 0-1.431-1.431l-1.635-.352c-.943-.202-.943-1.548 0-1.75l1.635-.352a1.864 1.864 0 0 0 1.431-1.43l.352-1.636Z"
  />
</svg>
