<svg viewBox="0 0 38 24" xmlns="http://www.w3.org/2000/svg">
  <rect y=".002" width="38" height="24" rx="2" fill="#AFADFF" />
  <path
    d="M24.185 6.644a1.763 1.763 0 0 1 1.923 2.005l-1.356 9.707a1.754 1.754 0 0 1-2.25 1.442l-6.304-1.937a1.325 1.325 0 0 1-.92-1.451l.27-1.92 2.455.434a1.316 1.316 0 0 0 1.532-1.118l.956-6.77 3.694-.392Zm-5.07-2.488a1.32 1.32 0 0 1 1.572 1.484l-.198 1.397-2.934.311a1.32 1.32 0 0 0-1.165 1.133l-.843 6.009-2.764-.49a1.106 1.106 0 0 1-.897-1.243l.908-6.52c.064-.462.409-.83.862-.928l5.458-1.153Z"
    fill="#060606"
  />
</svg>
