<svg viewBox="0 0 24 24" xmlns="http://www.w3.org/2000/svg">
  <path
    d="M10.852.348a2.069 2.069 0 0 1 2.296 0c3.296 2.204 6.483 2.909 7.578 3.097A1.53 1.53 0 0 1 22 4.945v6.04c0 2.788-.571 5.186-2.059 7.316-1.473 2.11-3.779 3.86-7.063 5.49a1.98 1.98 0 0 1-1.756 0c-3.284-1.63-5.59-3.38-7.063-5.49-1.395-1.997-1.984-4.23-2.052-6.798L2 10.986v-6.04l.007-.143c.065-.7.606-1.245 1.267-1.358 1.095-.188 4.282-.893 7.578-3.097Zm1.11 1.662C8.676 4.21 5.49 5.046 4 5.341v5.645l.006.462c.06 2.28.574 4.107 1.692 5.708 1.205 1.725 3.18 3.286 6.302 4.837 3.122-1.55 5.097-3.112 6.302-4.837C19.494 15.448 20 13.483 20 10.986V5.34c-1.49-.295-4.675-1.132-7.963-3.33A.067.067 0 0 0 12 2a.067.067 0 0 0-.037.01Zm3.335 6.61a1 1 0 1 1 1.414 1.414l-5.339 5.338a1 1 0 0 1-1.414 0l-2.669-2.67a1 1 0 0 1 1.414-1.413l1.962 1.961 4.632-4.63Z"
  />
</svg>
