<svg viewBox="0 0 50 32" xmlns="http://www.w3.org/2000/svg">
  <rect width="50" height="32" rx="2" fill="#1B1323" />
  <path
    d="m7.773 19.108.323 2.633h11.32l-.37-3.017h-5.278l-.047-.374 4.861-3.396-.323-2.64H6.939l.37 3.017h5.287l.046.377-4.87 3.4Zm36.167-3.4c-.261-2.118-1.926-3.403-4.188-3.395h-7.534l1.157 9.426h3.389l-.232-1.884h3.587c2.823 0 4.115-1.759 3.82-4.147h.001Zm-4.188 1.504-3.545.004-.278-2.262 3.563.003c.84.01 1.268.483 1.337 1.128.045.415-.145 1.127-1.077 1.127Z"
    fill="#FCF9F7"
  />
  <path
    d="m19.575 12.313 1.159 9.428h11.328l-1.159-9.428H19.575Z"
    fill="#AA8FFF"
  />
  <path
    d="M23.029 11.1c.6-.64.5-1.708-.222-2.388-.723-.68-1.796-.712-2.396-.074-.601.64-.502 1.708.221 2.387.723.68 1.796.713 2.397.075Z"
    fill="#FCF9F7"
  />
</svg>
