<svg viewBox="0 0 24 24" xmlns="http://www.w3.org/2000/svg">
  <path
    d="M18.292 12.443a3.108 3.108 0 1 1 3.19 5.334l-7.604 4.519a4.999 4.999 0 0 1-3.651.58L3.34 21.327a3 3 0 0 1-2.33-2.666l-.012-.26V15c0-.83.395-1.565.916-2.08.52-.513 1.248-.889 2.044-.921v.002l.04-.003L6.333 12h5.666a3 3 0 0 1 2.95 2.454l3.343-2.01Zm2.507 2.025a1.107 1.107 0 0 0-1.476-.31l-6.15 3.7a1.001 1.001 0 0 1-.515.142H9a1 1 0 1 1 0-2h3l.103-.005a1 1 0 0 0 0-1.99L11.999 14H6.332l-2.294-.001c-.222.01-.494.125-.719.347-.224.221-.32.467-.32.655v3.4l.015.171a1 1 0 0 0 .765.804l6.886 1.549a3 3 0 0 0 2.191-.348l7.604-4.52c.555-.33.71-1.062.339-1.59ZM11.999 1c1.734 0 3.346.233 4.559.637.6.2 1.16.462 1.588.8.392.308.799.785.848 1.431L19 4v3c0 .714-.435 1.234-.852 1.563-.43.338-.988.6-1.59.8C15.346 9.767 13.734 10 12 10s-3.346-.233-4.559-.637c-.6-.2-1.16-.462-1.588-.8C5.435 8.234 5 7.713 5 7V4c0-.714.435-1.234.853-1.563.428-.338.987-.6 1.588-.8C8.653 1.233 10.265 1 12 1Zm1 5.97c-.327.018-.661.03-1 .03-.339 0-.673-.012-1-.03v.999c.323.019.657.031 1 .031.343 0 .677-.012 1-.031V6.97Zm-6-.059a.807.807 0 0 0 .09.082c.18.14.499.311.983.473.275.092.587.172.927.244v-.962a11.157 11.157 0 0 1-1.559-.385A7.611 7.611 0 0 1 7 6.201v.71Zm9.559-.548c-.466.156-.991.284-1.559.385v.962a8.53 8.53 0 0 0 .927-.244c.484-.162.804-.332.982-.473a.845.845 0 0 0 .091-.08V6.2a7.595 7.595 0 0 1-.441.162ZM11.999 3c-1.58 0-2.968.215-3.927.534-.475.159-.791.327-.971.466.18.139.496.307.971.466C9.032 4.786 10.42 5 12 5s2.968-.215 3.927-.534c.476-.159.792-.327.972-.466-.18-.14-.496-.307-.972-.466C14.967 3.214 13.579 3 12 3Z"
  />
</svg>
